<svg width="294" height="205" viewBox="0 0 294 205" fill="none" xmlns="http://www.w3.org/2000/svg">
<path opacity="0.5" d="M114.482 21.5573C124.888 21.5573 126.893 19.4364 147 19.4364C167.109 19.4364 169.112 21.5573 179.519 21.5573C188.19 21.5573 214.206 0.33487 227.214 0.33487C240.221 0.33487 255.397 7.97549 255.397 30.0484V55.5157C255.369 62.2012 252.941 82.6946 243.432 77.218C258.537 95.069 255.395 116.899 255.397 136.167C255.397 189.226 183.854 204.083 147 204.083C110.145 204.083 38.6043 189.226 38.6043 136.167C38.6045 116.899 35.464 95.069 50.5674 77.218C41.0599 82.6946 38.6307 62.2012 38.6045 55.5157V30.0469C38.6045 7.974 53.7798 0.333374 66.7873 0.333374C79.7947 0.333374 105.81 21.5573 114.482 21.5573Z" fill="#1C274C"/>
<path fill-rule="evenodd" clip-rule="evenodd" d="M135.837 137.249C139.264 135.921 143.308 135.318 147.264 135.318C151.22 135.318 155.263 135.921 158.691 137.249C160.372 137.9 162.428 138.927 164.239 140.587C166.058 142.252 168.406 145.336 168.406 149.75C168.406 154.165 166.058 157.248 164.239 158.913C162.428 160.573 160.372 161.6 158.691 162.251C155.263 163.579 151.22 164.182 147.264 164.182C143.308 164.182 139.264 163.579 135.837 162.251C134.157 161.6 132.101 160.573 130.289 158.913C128.471 157.248 126.123 154.165 126.123 149.75C126.123 145.336 128.471 142.252 130.289 140.587C132.101 138.927 134.157 137.9 135.837 137.249Z" fill="#1C274C"/>
<path d="M226.645 127.677C226.645 122.051 231.206 117.49 236.832 117.49C240.849 117.49 245.664 118.405 250.152 119.51C254.834 120.661 259.924 122.215 264.774 123.874C274.064 127.051 283.916 131.102 288.367 133.976C293.093 137.028 294.45 143.335 291.398 148.06C288.345 152.787 282.039 154.144 277.313 151.092C275.191 149.722 267.515 146.345 258.182 143.154C253.723 141.629 249.228 140.265 245.284 139.294C241.145 138.276 238.291 137.865 236.832 137.865C231.206 137.865 226.645 133.303 226.645 127.677Z" fill="#1C274C"/>
<path d="M228.064 151.448C222.436 151.448 217.876 156.009 217.876 161.635C217.876 167.262 222.436 171.823 228.064 171.823C230.865 171.823 235.529 173.388 241.378 176.479C246.024 178.934 250.285 181.716 253.617 183.89C254.243 184.299 254.842 184.691 255.399 185.05C260.126 188.103 266.431 186.746 269.485 182.019C272.537 177.293 271.18 170.986 266.453 167.934C266.004 167.643 265.49 167.308 264.92 166.936C261.627 164.783 256.463 161.406 250.898 158.465C244.698 155.189 236.217 151.448 228.064 151.448Z" fill="#1C274C"/>
<path d="M35.8248 143.154C26.4919 146.345 18.8169 149.722 16.6949 151.092C11.9686 154.144 5.6625 152.787 2.61006 148.06C-0.442391 143.335 0.914584 137.028 5.64104 133.976C10.0916 131.102 19.9435 127.051 29.233 123.874C34.0843 122.215 39.1742 120.661 43.8564 119.51C48.3438 118.405 53.1588 117.49 57.1761 117.49C62.8026 117.49 67.3636 122.051 67.3636 127.677C67.3636 133.303 62.8026 137.865 57.1761 137.865C55.7164 137.865 52.8632 138.276 48.7241 139.294C44.7798 140.265 40.2847 141.629 35.8248 143.154Z" fill="#1C274C"/>
<path d="M38.6087 185.05C39.1674 184.689 39.7627 184.301 40.391 183.89C43.7234 181.716 47.9842 178.934 52.6297 176.479C58.4794 173.388 63.144 171.823 65.9448 171.823C71.5712 171.823 76.1323 167.262 76.1323 161.635C76.1323 156.009 71.5712 151.448 65.9448 151.448C57.7912 151.448 49.3106 155.189 43.1106 158.465C37.5453 161.406 32.381 164.783 29.0884 166.936C28.5197 167.307 28.0042 167.645 27.5549 167.934C22.8284 170.986 21.4714 177.293 24.5239 182.019C27.5763 186.746 33.8824 188.103 38.6087 185.05Z" fill="#1C274C"/>
<path d="M88.7422 121.032C90.7691 92.995 117.81 86.1478 132.041 109.43" stroke="#1C274C" stroke-width="15" stroke-linecap="round"/>
<path d="M168 109.43C183.223 88.22 210.073 95.7809 211.299 121.032" stroke="#1C274C" stroke-width="15" stroke-linecap="round"/>
</svg>
