<svg width="164" height="154" viewBox="0 0 164 154" fill="none" xmlns="http://www.w3.org/2000/svg">
<path d="M4.40169 52.5513C3.16215 48.9112 2.71432 44.0723 2.70448 41.7033V22.4583C2.70448 14.7392 5.32528 9.85574 8.79035 6.86564C12.3241 3.81625 17.0131 2.5 21.4713 2.5C23.3608 2.5 26.0165 3.30501 29.2846 4.78411C32.4844 6.23227 35.9688 8.18173 39.4442 10.1864C40.1299 10.5819 40.8168 10.9806 41.5009 11.3775C44.236 12.9647 46.9254 14.5254 49.3112 15.7567C50.8097 16.5301 52.2524 17.2076 53.5693 17.6962C54.8463 18.1701 56.1995 18.5417 57.4616 18.5417C60.9178 18.5417 63.2541 18.2398 65.7977 17.9112C66.2847 17.8483 66.7794 17.7844 67.2909 17.7214C70.4506 17.3326 74.52 16.9386 82 16.9386C89.4805 16.9386 93.55 17.3326 96.7095 17.7214C97.221 17.7844 97.7157 17.8483 98.2027 17.9112C100.746 18.2398 103.082 18.5417 106.539 18.5417C107.801 18.5417 109.154 18.1701 110.431 17.6963C111.748 17.2077 113.19 16.5303 114.689 15.757C117.075 14.5257 119.764 12.9652 122.499 11.3781C123.183 10.9811 123.87 10.5825 124.556 10.187C128.032 8.18249 131.516 6.23316 134.716 4.7851C137.984 3.3061 140.64 2.50113 142.529 2.50113C146.987 2.50113 151.676 3.81738 155.21 6.86677C158.675 9.85686 161.296 14.7404 161.296 22.4595L161.296 41.6982C161.296 41.6994 161.296 41.7006 161.296 41.7019C161.286 44.0708 160.838 48.9106 159.598 52.5512C158.959 54.4276 158.246 55.5669 157.637 56.0566C157.387 56.2568 157.218 56.2991 157.089 56.3057C156.942 56.3131 156.603 56.2842 156.017 55.9461L152.858 59.7249C158.141 65.9791 160.274 72.9526 161.071 80.2585C161.642 85.5017 161.521 90.7212 161.399 95.9811C161.348 98.2009 161.296 100.428 161.296 102.667C161.296 121.32 148.83 133.477 132.281 141.102C115.725 148.73 95.6566 151.5 82 151.5C68.3433 151.5 48.2751 148.73 31.7194 141.102C15.1707 133.477 2.70437 121.32 2.70437 102.667C2.70439 100.429 2.65268 98.2036 2.60114 95.9852C2.4789 90.7239 2.35759 85.503 2.92947 80.2585C3.72613 72.9526 5.85861 65.979 11.1416 59.7248L7.98239 55.9462C7.39642 56.2842 7.05763 56.3131 6.91112 56.3057C6.78183 56.2991 6.61244 56.2569 6.36324 56.0566C5.75384 55.567 5.04065 54.4276 4.40169 52.5513Z" fill="#305F56" stroke="#A0BBA4" stroke-width="5"/>
<path d="M40.4944 102L44.4144 80.64H52.0144L56.4944 102H50.9744L46.3344 80.8H49.6944L45.4544 102H40.4944ZM39.1344 102L39.0944 95.92H43.4944L43.5344 102H39.1344ZM35.5744 102L29.7744 79.92H36.8944L42.2544 102H35.5744ZM52.9344 102L52.9744 95.92H57.3744L57.3344 102H52.9344ZM54.6944 102L59.5344 79.92H66.1744L60.8944 102H54.6944ZM69.458 110.8V104.72H74.538C75.1513 104.72 75.6713 104.64 76.098 104.48C76.5247 104.32 76.8713 104.053 77.138 103.68C77.4047 103.333 77.6047 102.84 77.738 102.2L82.698 79.92H89.578L83.778 103.6C83.3513 105.413 82.7513 106.84 81.978 107.88C81.2313 108.947 80.1913 109.693 78.858 110.12C77.5513 110.573 75.8447 110.8 73.738 110.8H69.458ZM76.458 101.52V95.92H81.098V101.52H76.458ZM73.098 101.52L66.658 79.92H73.938L79.978 101.52H73.098ZM89.4906 102V94.08H97.3306V102H89.4906ZM114.537 102V95.52H113.337V88.6C113.337 87.5867 113.097 86.84 112.617 86.36C112.164 85.8533 111.404 85.6 110.337 85.6C109.831 85.6 109.084 85.6133 108.097 85.64C107.111 85.6667 106.071 85.7067 104.977 85.76C103.884 85.8133 102.884 85.8667 101.977 85.92V79.84C102.617 79.7867 103.377 79.7333 104.257 79.68C105.137 79.6267 106.044 79.5867 106.977 79.56C107.937 79.5333 108.817 79.52 109.617 79.52C111.884 79.52 113.804 79.8533 115.377 80.52C116.977 81.1867 118.191 82.1867 119.017 83.52C119.871 84.8533 120.297 86.5467 120.297 88.6V102H114.537ZM107.537 102.56C105.991 102.56 104.617 102.28 103.417 101.72C102.217 101.16 101.271 100.36 100.577 99.32C99.9106 98.2533 99.5773 96.9867 99.5773 95.52C99.5773 93.8667 100.017 92.5333 100.897 91.52C101.777 90.48 102.991 89.72 104.537 89.24C106.084 88.76 107.857 88.52 109.857 88.52H114.137V92.28H109.857C108.871 92.28 108.111 92.5333 107.577 93.04C107.044 93.52 106.777 94.1733 106.777 95C106.777 95.8 107.044 96.4533 107.577 96.96C108.111 97.44 108.871 97.68 109.857 97.68C110.497 97.68 111.057 97.5733 111.537 97.36C112.044 97.12 112.457 96.72 112.777 96.16C113.097 95.6 113.284 94.8267 113.337 93.84L115.017 95.44C114.884 96.96 114.511 98.2533 113.897 99.32C113.311 100.36 112.484 101.16 111.417 101.72C110.377 102.28 109.084 102.56 107.537 102.56ZM125.794 102V79.92H133.074V102H125.794ZM122.994 85.2V79.92H133.074V85.2H122.994ZM128.794 78.16C127.46 78.16 126.474 77.8267 125.834 77.16C125.22 76.4667 124.914 75.5867 124.914 74.52C124.914 73.4533 125.22 72.5867 125.834 71.92C126.474 71.2267 127.447 70.88 128.754 70.88C130.087 70.88 131.06 71.2267 131.674 71.92C132.287 72.5867 132.594 73.4533 132.594 74.52C132.594 75.5867 132.287 76.4667 131.674 77.16C131.06 77.8267 130.1 78.16 128.794 78.16Z" fill="#C2D6C6"/>
</svg>